<svg width="0" height="0" class="hidden">
  <symbol xmlns="http://www.w3.org/2000/svg" viewBox="0 0 32 32" id="antenna">
    <path fill="#212121" d="M30.77 22.1l-8.44-8.5.94-4.62c.24.1.5.14.75.14h.01a2.16 2.16 0 10-2-1.43l-4.97.6L8.97.16A.53.53 0 008.6 0a.53.53 0 00-.37.16l-1.51 1.5c-.2.2-.2.55 0 .75l.81.83a14.94 14.94 0 002.52 17.66c.05.04.1.08.15.1-.04.18-.05.36-.05.55v6.18h-6.4a2.67 2.67 0 00-2.67 2.67v1.07c0 .3.24.53.53.53h24.54c.29 0 .53-.24.53-.53V30.4c0-1.47-1.2-2.66-2.67-2.66h-6.4v-2.75a14.85 14.85 0 0010.09-1.46l.82.82a.53.53 0 00.75 0l1.51-1.5c.2-.2.2-.54 0-.75zM23.28 6.23a1.07 1.07 0 11.75 1.82 1.07 1.07 0 01-.75-1.82zm-1.26 3.5l-.6 2.95-1.17-1.18 1.78-1.76zm-.6-.9l-1.92 1.92-1.5-1.5 3.4-.41zM24 28.8c.89 0 1.6.72 1.6 1.6v.53H2.14v-.53c0-.88.71-1.6 1.6-1.6H24zm-7.46-2.13v1.06H11.2v-1.06h5.34zM11.2 25.6v-4.05c0-1.3 1.2-2.35 2.67-2.35s2.67 1.05 2.67 2.35v4.05H11.2zm6.4-1.7v-2.35c0-1.89-1.67-3.42-3.73-3.42a3.8 3.8 0 00-3.28 1.79A13.87 13.87 0 018.31 4.03l18.6 18.71a13.82 13.82 0 01-9.3 1.16zm11.3-.68L7.83 2.04l.75-.75 7.94 7.98 13.12 13.2-.76.75z"></path>
    <path fill="#2196f3" d="M13.88 20.27a1.6 1.6 0 10-.01 3.2 1.6 1.6 0 100-3.2zm.37 1.98c-.1.1-.24.15-.38.15a.53.53 0 010-1.07.53.53 0 01.37.92z"></path>
  </symbol>
  <symbol xmlns="http://www.w3.org/2000/svg" viewBox="0 0 32 32" id="astronaut">
    <path fill="#2196f3" d="M31.97 4.52a.53.53 0 00-.43-.36l-1.9-.28-.86-1.73c-.18-.36-.78-.36-.96 0l-.85 1.73-1.91.28a.54.54 0 00-.3.91l1.38 1.35-.32 1.9c-.04.2.05.4.21.52.17.12.38.14.56.04l1.71-.9 1.71.9a.54.54 0 00.78-.56l-.33-1.9 1.38-1.35c.15-.14.2-.35.14-.55zm-2.46 1.33a.53.53 0 00-.15.47l.19 1.12-1-.53a.53.53 0 00-.5 0l-1 .53.2-1.12a.53.53 0 00-.16-.47l-.81-.79 1.12-.16a.53.53 0 00.4-.3l.5-1 .5 1c.08.16.23.27.4.3l1.12.16-.8.8zm-3.38 14.67h-1.06v1.07h1.06v-1.07zm0 2.14h-1.06v1.06h1.06v-1.06zm1.07-1.07h-1.07v1.07h1.07v-1.07zm-2.13 0H24v1.07h1.07v-1.07zm-2.67 4.8h-1.07v1.07h1.07v-1.07zm0 2.13h-1.07v1.07h1.07v-1.07zm1.07-1.06H22.4v1.06h1.07v-1.06zm-2.14 0h-1.06v1.06h1.06v-1.06zM16 24.26h-1.07v1.06H16v-1.06zm0 2.13h-1.07v1.07H16v-1.07zm1.07-1.07H16v1.07h1.07v-1.07zm-2.14 0h-1.06v1.07h1.06v-1.07zM5.87 6.12H4.8V7.2h1.07V6.12zm0 2.14H4.8v1.06h1.07V8.26zm1.06-1.07H5.87v1.07h1.06V7.19zm-2.13 0H3.73v1.07H4.8V7.19z"></path>
    <path fill="#212121" d="M24.71 14.16c-.28-.39-.7-.64-1.18-.7-.48-.07-.96.05-1.34.35l-1.26.96-1.9 1.41-1.35-.54A6.94 6.94 0 0014.83 2.4a6.96 6.96 0 00-6.96 6.93c0 1.39.42 2.68 1.12 3.76l-2.76-.02H6.2l-.16.03-.03.02h-.02l-3.24 1.6-1.89.9a1.78 1.78 0 00.93 3.3c.3.01.58-.06.84-.2l1.4-.74 2.26-1.17h1.35L2.2 22.2.86 23.55a1.65 1.65 0 000 2.35 1.67 1.67 0 002.36 0l1.31-1.3 1.74-1.3.9.89-1.76 1.75-1.34 1.34a1.65 1.65 0 000 2.36 1.67 1.67 0 002.36 0l3.48-3.47 1.01-1 .02-.02 5.17-5.66 3.47.5h.07c.07 0 .13-.02.2-.04l.04-.02.06-.03 3.21-2.13.03-.03.04-.03 1.27-1.19c.67-.62.76-1.63.22-2.36zM2.14 17.77a.71.71 0 01-.56.05.72.72 0 01-.21-1.26l1.31-.63.45 1.31-.99.53zm3.5-1.83l-1.55.8-.44-1.28 2.03-1-.04 1.48zm15.1-6.62c0 .92-.22 1.79-.6 2.56l-4.18-1.9a1.86 1.86 0 00-.8-1.39l1.47-4.86a5.88 5.88 0 014.1 5.6zm-11.8 0a5.89 5.89 0 016.65-5.81l-1.44 4.75h-.05a1.87 1.87 0 100 3.73c.7 0 1.3-.38 1.62-.95l3.86 1.76A5.9 5.9 0 018.94 9.32zm5.96.8a.8.8 0 01-1.6 0 .8.8 0 011.6 0zM2.46 25.15a.6.6 0 01-.85 0 .6.6 0 010-.85l.96-.95.85.84-.96.96zm3.22 3.73a.6.6 0 01-.86 0 .6.6 0 010-.84l.97-.96.85.85-.96.95zm3.48-3.47l-1.77 1.76-.85-.85 1.76-1.75c.05-.04.07-.09.1-.14l.02-.04c.02-.04.02-.08.03-.13l.01-.07-.02-.1c0-.04 0-.07-.02-.1a.55.55 0 00-.09-.14l-.02-.04-1.61-1.6-.06-.04a.5.5 0 00-.09-.05.51.51 0 00-.09-.04.5.5 0 00-.1-.02.5.5 0 00-.1 0l-.1.03a.48.48 0 00-.1.04l-.06.03-1.77 1.33-.9-.9 2.4-2.39 4.36 4.3-.93.91zm6.82-7.02h-.05a.56.56 0 00-.3.08.5.5 0 00-.08.06l-.04.03-4.7 5.15-4.33-4.26 2.84-2.82a.53.53 0 00-.38-.9H6.72l.03-1.6 3.1.02a6.95 6.95 0 006.26 1.98c.04.03.08.07.13.09l2.41.96.33 1.64-3-.43zm4.04.18l-.31-1.56 1.44-1.08.95 1.26-2.08 1.38zm3.75-2.83l-.83.79-.94-1.24.84-.64a.73.73 0 01.54-.14.72.72 0 01.4 1.23z"></path>
    <path fill="#212121" d="M13.6 18.54l-2.14-2.13a.53.53 0 00-.75 0l-2.15 2.13a.54.54 0 000 .76l2.15 2.13a.54.54 0 00.75 0l2.14-2.13a.54.54 0 000-.76zm-2.52 1.76L9.7 18.92l1.38-1.38 1.39 1.38-1.39 1.38zm6.08-15.23l-.25 1.04c.07.01 1.73.45 1.73 2.15h1.07c0-2.02-1.66-2.97-2.55-3.19zm2.55 4.25h-1.07v1.07h1.07V9.32z"></path>
  </symbol>
  <symbol xmlns="http://www.w3.org/2000/svg" viewBox="0 0 32 32" id="clock">
    <path fill="#212121" d="M31.3 15.3a15.3 15.3 0 10-19.96 14.58l.18.03c.12 0 .24-.03.35-.1.13-.07.23-.2.28-.35L16 17.21a1.91 1.91 0 10-.84-3.63l-5.1-5.1a.64.64 0 00-.9.9l5.1 5.1c-.4.8-.17 1.77.53 2.31l-3.68 11.67a14.04 14.04 0 1110.57-.35l-.4-1.87a.64.64 0 00-1.04-.34l-3.84 3.42a.64.64 0 00.23 1.09l4.9 1.56a.64.64 0 00.82-.74l-.4-1.84A15.26 15.26 0 0031.3 15.3zM16 14.66a.64.64 0 110 1.28.64.64 0 010-1.28zm2.1 14.87l2.18-1.95.6 2.84-2.79-.9z"></path>
    <path fill="#2196f3" d="M15.35 3.19v1.27a.64.64 0 101.28 0V3.19a.64.64 0 00-1.28 0zM3.88 14.66a.64.64 0 000 1.28h1.27a.64.64 0 100-1.28H3.88zm24.22 1.28a.64.64 0 100-1.28h-1.27a.64.64 0 000 1.28h1.28z"></path>
  </symbol>
  <symbol xmlns="http://www.w3.org/2000/svg" viewBox="0 0 32 32" id="diagram">
    <path fill="#2196f3" d="M14.93 14.96h1.06v4.8h-1.06v-4.8zm4.26 2.14h1.07v2.66h-1.07V17.1zm-8.53 1.6h1.07v1.06h-1.07V18.7zm-3.2-.54h1.07v1.6H7.46v-1.6z"></path>
    <path fill="#212121" d="M1.6 28.3h25.59c.88 0 1.6-.73 1.6-1.6v-2.14c0-.88-.72-1.6-1.6-1.6h-.54V9.66l3.03-2.86a1.6 1.6 0 10-.75-.76L26.65 8.2V6.97c0-.88-.71-1.6-1.6-1.6H3.73c-.88 0-1.6.72-1.6 1.6v16H1.6c-.88 0-1.6.7-1.6 1.6v2.12c0 .89.72 1.6 1.6 1.6zM30.38 4.83a.53.53 0 110 1.06.53.53 0 010-1.06zM3.2 6.97c0-.3.24-.53.53-.53h21.32c.3 0 .54.23.54.53V9.2l-1.07 1.01V8.03c0-.29-.24-.53-.53-.53H4.79c-.29 0-.53.24-.53.53v13.33c0 .3.24.53.54.53h19.19c.3 0 .53-.23.53-.53V11.7l1.07-1.01v12.28H3.19v-16zM8 13.9a1.6 1.6 0 101.1 2.75l1.86.93c.21.1.47.06.63-.12l3.94-4.44 3.87 2.9c.21.16.5.14.69-.03l3.36-3.2v8.14H5.33V8.57h18.12v2.66l-3.77 3.57-3.9-2.93a.53.53 0 00-.72.08l-4 4.49-1.49-.75c.02-.06.02-.13.02-.19 0-.88-.71-1.6-1.6-1.6zm.53 1.6a.53.53 0 11-1.07 0 .53.53 0 011.07 0zm3.2 8.53h5.33v.53c0 .3-.24.53-.53.53h-4.27a.53.53 0 01-.53-.53v-.53zm-10.66.53c0-.3.24-.53.53-.53h9.06v.53c0 .88.72 1.6 1.6 1.6h4.26c.89 0 1.6-.72 1.6-1.6v-.53h9.06c.3 0 .54.24.54.53v2.13c0 .3-.24.53-.53.53H1.59a.53.53 0 01-.52-.53v-2.13z"></path>
  </symbol>
  <symbol xmlns="http://www.w3.org/2000/svg" viewBox="0 0 43 32" id="envelope">
    <path  d="M38.67 0H4a4 4 0 00-4 4v24a4 4 0 004 4h34.67a4 4 0 004-4V4a4 4 0 00-4-4zm0 2.67c.18 0 .35.03.5.1L21.34 18.24 3.5 2.77c.16-.07.33-.1.51-.1h34.67zm0 26.66H4c-.74 0-1.33-.6-1.33-1.33V5.59L20.46 21a1.33 1.33 0 001.75 0L40 5.59V28c0 .74-.6 1.33-1.34 1.33z"></path>
  </symbol>
  <symbol xmlns="http://www.w3.org/2000/svg" viewBox="0 0 32 32" id="facebook">
    <path  d="M21.33 5.31h2.92V.23C23.75.15 22.01 0 19.99 0c-4.2 0-7.1 2.65-7.1 7.52V12H8.26v5.69h4.65V32h5.7V17.69h4.46l.7-5.69H18.6V8.08c0-1.64.45-2.77 2.74-2.77z"></path>
  </symbol>
  <symbol xmlns="http://www.w3.org/2000/svg" viewBox="0 0 32 32" id="instagram">
    <path  d="M31.97 9.4a11.7 11.7 0 00-.74-3.87 7.8 7.8 0 00-1.86-2.84A7.87 7.87 0 0026.54.84C25.52.45 24.36.17 22.66.1 20.95.02 20.4 0 16.06 0s-4.89.02-6.6.1C7.76.16 6.6.43 5.58.83a7.8 7.8 0 00-2.84 1.85A7.87 7.87 0 00.9 5.52C.5 6.54.23 7.7.16 9.4c-.08 1.71-.1 2.26-.1 6.6s.02 4.9.09 6.6c.08 1.7.35 2.87.74 3.88a7.9 7.9 0 001.85 2.84c.8.81 1.77 1.44 2.84 1.84 1.02.4 2.18.67 3.88.75 1.7.07 2.25.09 6.6.09s4.88-.02 6.59-.1a11.7 11.7 0 003.88-.74 8.18 8.18 0 004.68-4.68c.4-1.02.67-2.18.75-3.88.07-1.7.09-2.25.09-6.6s0-4.89-.08-6.6zm-2.88 13.07a8.76 8.76 0 01-.55 2.97 5.31 5.31 0 01-3.04 3.04c-.56.22-1.41.48-2.97.55-1.69.07-2.2.1-6.46.1s-4.79-.02-6.47-.1a8.76 8.76 0 01-2.97-.55 4.93 4.93 0 01-1.84-1.2 4.97 4.97 0 01-1.19-1.83 8.81 8.81 0 01-.55-2.97c-.07-1.69-.1-2.2-.1-6.47s.03-4.78.1-6.46c.07-1.56.33-2.4.55-2.97.26-.7.66-1.32 1.2-1.84a4.97 4.97 0 011.84-1.19A8.81 8.81 0 019.6 3c1.69-.07 2.2-.1 6.46-.1 4.28 0 4.78.03 6.47.1 1.56.07 2.4.33 2.96.55.7.26 1.33.66 1.84 1.2.53.51.94 1.14 1.2 1.83.22.57.48 1.42.55 2.97.07 1.69.1 2.2.1 6.46s-.03 4.77-.1 6.46z"></path>
    <path  d="M16.06 7.78a8.22 8.22 0 100 16.45 8.22 8.22 0 000-16.45zm0 13.55a5.33 5.33 0 110-10.66 5.33 5.33 0 010 10.67zM26.52 7.46a1.92 1.92 0 11-3.83 0 1.92 1.92 0 013.83 0z"></path>
  </symbol>
  <symbol xmlns="http://www.w3.org/2000/svg" viewBox="0 0 32 32" id="linkedin">
    <path  d="M32 32V20.26c0-5.74-1.24-10.16-7.95-10.16-3.23 0-5.39 1.77-6.27 3.45h-.1v-2.92h-6.36V32h6.63V21.42c0-2.79.52-5.48 3.97-5.48 3.4 0 3.45 3.18 3.45 5.66V32H32zM.53 10.64h6.63V32H.53V10.64zM3.84 0C1.72 0 0 1.72 0 3.84s1.72 3.88 3.84 3.88A3.88 3.88 0 007.7 3.84 3.85 3.85 0 003.84 0z"></path>
  </symbol>
  <symbol xmlns="http://www.w3.org/2000/svg" viewBox="0 0 45 50" id="logo-1">
    <path d="M6 0l7.3 6.92h20.4v19.3l7.3 6.91V0H6z"></path>
    <path d="M0 6.63V38.8h34V26L13.52 6.64H0zM27.52 34.1H5.38V12.46h1.57v20.18h20.57v1.47zM9.8 44.78l.8-1.68h.7l-1.2 2.25v1.3h-.62v-1.3l-1.2-2.25h.7l.81 1.68zm3.5 1.05h-1.38l-.28.82h-.65l1.35-3.55h.55l1.35 3.55h-.65l-.29-.82zm-1.2-.5h1.03l-.52-1.48-.51 1.48zm3.64.36a.8.8 0 01.13-.45c.09-.14.27-.3.53-.49a2.27 2.27 0 01-.3-.44.88.88 0 01-.07-.36c0-.27.08-.5.25-.66.17-.16.4-.24.69-.24a.9.9 0 01.63.23c.17.15.25.34.25.56 0 .15-.04.29-.11.41-.08.13-.2.25-.37.38l-.24.17.68.81c.1-.2.15-.41.15-.65h.52c0 .44-.1.8-.31 1.08l.52.61H18l-.2-.23c-.25.19-.55.28-.9.28-.36 0-.64-.09-.85-.28a.93.93 0 01-.31-.73zm1.17.54a.9.9 0 00.56-.2l-.77-.92-.08.06c-.2.15-.3.31-.3.5 0 .17.06.3.17.4.1.1.25.16.42.16zm-.32-2.3c0 .15.08.32.25.52l.27-.18.07-.06c.1-.1.16-.2.16-.35 0-.09-.04-.17-.11-.23a.37.37 0 00-.27-.1c-.11 0-.2.04-.27.11a.43.43 0 00-.1.3zm6.45 1.57c-.03.38-.17.67-.42.89-.24.2-.57.31-.97.31a1.4 1.4 0 01-.75-.2 1.33 1.33 0 01-.5-.57 2.06 2.06 0 01-.18-.86v-.34c0-.33.06-.63.18-.88a1.35 1.35 0 011.28-.8c.39 0 .7.1.95.32.23.21.37.51.41.9h-.61c-.03-.25-.1-.44-.23-.55-.12-.11-.3-.17-.52-.17-.27 0-.48.1-.62.3-.15.2-.22.48-.22.86v.31c0 .39.07.68.2.88.14.2.34.3.6.3.25 0 .43-.05.56-.16.12-.1.2-.29.23-.54h.61zm3.4-.53c0 .35-.07.65-.19.92-.12.26-.29.46-.51.6-.23.14-.48.21-.78.21-.28 0-.54-.07-.77-.2a1.4 1.4 0 01-.52-.61 2.12 2.12 0 01-.19-.9v-.2c0-.35.07-.65.19-.92.12-.26.3-.47.52-.6.22-.15.48-.22.77-.22a1.36 1.36 0 011.29.81c.12.26.18.56.18.91v.2zm-.62-.19c0-.39-.08-.7-.23-.9a.73.73 0 00-.63-.32c-.27 0-.48.1-.63.32-.15.2-.22.5-.23.88v.2c0 .4.08.7.23.91.15.22.36.32.63.32.28 0 .49-.1.63-.3.15-.22.23-.52.23-.92v-.19z"></path>
  </symbol>
  <symbol xmlns="http://www.w3.org/2000/svg" viewBox="0 0 40 52" id="logo-2">
    <path d="M16.98 2.93h.13c.26 0 .53.03.8.05 1.2.09 2.38.27 3.54.54V.65A21.1 21.1 0 0016.32 0h-.43c-2.47 0-4.94.33-7.33.95A29.73 29.73 0 00.77 4.1v28.4a32.36 32.36 0 0113.65-3.85h.08c.35-.02.7-.03 1.07-.03v-2.9a34.33 34.33 0 00-10.91 1.9l-1.01.34V5.83l.43-.2A28.28 28.28 0 0115.89 2.9h.46l.63.02z"></path>
    <path d="M24.11 5.93a25.91 25.91 0 01-5.56-.6v28.06c1.82.45 3.7.67 5.57.66 2.47-.01 4.94-.33 7.33-.94a29.81 29.81 0 007.8-3.17V2.05a31.78 31.78 0 01-7.43 2.9c-2.52.64-5.1.97-7.7.98zm11.23.49l1-.34v22.15l-.43.2a27.76 27.76 0 01-13.76 2.64l-.7-.06V8.23l.81.05a34.26 34.26 0 0013.07-1.86zM2.74 42.21a1.5 1.5 0 00-1.13-.45c-.22 0-.44.04-.65.12a1.5 1.5 0 00-.95 1.47v3.8c0 .26.04.53.15.77.1.2.22.37.38.51.15.13.33.22.52.27.19.05.38.08.57.08a1.6 1.6 0 001.57-1.6v-.42h-1v.33c.01.12 0 .24-.05.34a.6.6 0 01-.14.22.7.7 0 01-.41.14.5.5 0 01-.47-.2.9.9 0 01-.14-.51v-3.54c0-.2.04-.39.13-.56a.5.5 0 01.48-.23.53.53 0 01.44.21.8.8 0 01.17.5v.34h.98v-.39a1.79 1.79 0 00-.45-1.2zm5.89-.04a1.77 1.77 0 00-1.72-.31c-.2.07-.37.17-.52.3-.17.16-.3.34-.39.54-.1.23-.15.48-.14.74v3.63c-.01.26.04.51.14.75.09.2.22.37.39.5.15.15.32.26.52.33a1.74 1.74 0 001.18 0 1.55 1.55 0 001.05-1.57v-3.64a1.64 1.64 0 00-.52-1.27zm-.46 4.9a.65.65 0 01-.2.53.73.73 0 01-.93 0 .65.65 0 01-.2-.53v-3.63a.65.65 0 01.2-.53.73.73 0 01.93 0 .65.65 0 01.2.53v3.63zm8.2 1.63v-6.9h-.96l-1.25 3.65h-.02l-1.26-3.65h-.94v6.89h.98v-4.2h.02l.96 2.97h.5l.97-2.96h.01v4.19h.99zm5.59-6.4c-.15-.18-.34-.3-.56-.38a2.18 2.18 0 00-.71-.11h-1.46v6.89h.98V46h.5c.31.02.61-.04.89-.18a1.65 1.65 0 00.76-1.13 4.9 4.9 0 00-.04-1.76 1.47 1.47 0 00-.36-.64zm-.5 2.1c-.01.12-.04.24-.1.35-.06.1-.14.2-.25.24a1 1 0 01-.46.1h-.45v-2.35h.5c.16 0 .3.02.45.09.1.05.18.14.23.25a1 1 0 01.08.38v.94zm5.14-2.59h-.8l-1.5 6.89h.98l.29-1.48h1.33l.3 1.48h.97l-1.55-6.89zm-.9 4.47l.49-2.5h.01l.48 2.5h-.98zm7.25-.32h-.02l-1.48-4.15h-.94v6.89h.98v-4.14h.02L33 48.7h.92v-6.9h-.98v4.15zm6-4.15l-.8 2.74h-.01l-.8-2.74h-1.03l1.35 3.98v2.9h.98v-2.9l1.35-3.98h-1.04zM0 50.64h.47v1.33H.8v-1.33h.47v-.27H0v.27zm3.98-.27l-.62 1.6h.34l.13-.36h.64l.13.36h.35l-.63-1.6h-.34zm-.05.97l.21-.6.22.6h-.43zm3.97.04h.38v.2a.61.61 0 01-.38.14.4.4 0 01-.34-.15.67.67 0 01-.12-.42c0-.35.15-.53.46-.53a.34.34 0 01.36.25l.32-.06c-.07-.31-.3-.47-.68-.47a.8.8 0 00-.56.2.78.78 0 00-.23.62c0 .22.06.44.2.6a.78.78 0 00.61.24c.25 0 .5-.09.68-.26v-.63h-.7v.27zm4.02-1.01h-.32v1.6h1.12v-.27h-.8v-1.33zm3.4 0h-.33v1.6h.33v-1.6zm3.32 1.07l-.66-1.07h-.31v1.6h.3v-1.04l.64 1.04h.32v-1.6h-.3v1.07zm3-.17h.8V51h-.8v-.36h.85v-.27h-1.18v1.6h1.22v-.27h-.9v-.43zm7.27-.27h-.63v-.63h-.32v1.6h.32v-.7h.63v.7h.32v-1.6h-.32V51zm3.02.27h.8V51h-.8v-.36h.86v-.27h-1.18v1.6h1.21v-.27h-.89v-.43zm4.09 0c.28-.05.42-.2.42-.45a.38.38 0 00-.15-.35.9.9 0 00-.47-.1h-.68v1.6h.32v-.67h.06c.07 0 .14.01.2.04.05.03.1.07.12.12l.35.5h.38l-.2-.3c-.08-.16-.2-.3-.35-.4zm-.32-.22h-.24v-.4h.25c.11-.01.23 0 .33.03a.2.2 0 01-.01.33.91.91 0 01-.33.04zm3.41.22h.8V51h-.8v-.36h.86v-.27h-1.18v1.6H40v-.27h-.89v-.43z"></path>
  </symbol>
  <symbol xmlns="http://www.w3.org/2000/svg" viewBox="0 0 41 43" id="logo-3">
    <path d="M6.35 41.8a.12.12 0 01.08.03l.2.21c-.16.18-.36.32-.58.41-.26.1-.54.16-.82.15-.26 0-.53-.04-.77-.14a1.67 1.67 0 01-.96-.98 2.16 2.16 0 01.01-1.54 1.79 1.79 0 011.02-.99 2.23 2.23 0 011.53 0c.2.08.4.2.56.34l-.18.23a.17.17 0 01-.04.04.1.1 0 01-.07.02.16.16 0 01-.07-.03l-.1-.06-.13-.08a1.4 1.4 0 00-.7-.16c-.2 0-.4.03-.58.1-.17.07-.32.17-.45.3-.13.13-.22.28-.29.45-.07.2-.1.4-.1.61 0 .21.03.42.1.62.07.17.16.32.29.46.12.12.26.22.43.28.16.07.34.1.52.1.11 0 .21 0 .32-.02a1.17 1.17 0 00.68-.32.15.15 0 01.1-.04zm5.94-1.09c0 .26-.05.52-.14.76-.09.22-.22.43-.39.6-.17.16-.38.3-.6.38a2.3 2.3 0 01-1.57 0 1.74 1.74 0 01-1-.99 2.17 2.17 0 010-1.52c.1-.22.22-.43.4-.6.17-.16.37-.3.6-.38.5-.18 1.06-.18 1.56 0a1.76 1.76 0 011 .98c.1.25.14.5.14.77zm-.54 0c0-.2-.03-.41-.1-.61a1.2 1.2 0 00-.71-.75 1.66 1.66 0 00-1.14 0 1.2 1.2 0 00-.71.75c-.13.4-.13.82 0 1.22a1.2 1.2 0 00.71.74c.37.14.77.14 1.14 0a1.2 1.2 0 00.7-.74c.08-.2.11-.4.1-.6zm4.59.64l.05.14.06-.14.07-.13 1.32-2.28c.02-.04.04-.06.07-.07a.32.32 0 01.1-.01h.4v3.7h-.46V39.6l-1.33 2.3a.2.2 0 01-.07.09.22.22 0 01-.12.03h-.07a.21.21 0 01-.11-.03.2.2 0 01-.08-.09l-1.36-2.32v2.97h-.45v-3.7h.4l.1.02c.03.02.06.04.07.07l1.34 2.28.07.13zm4.95-.18v1.39h-.52v-3.7h1.15c.22 0 .43.02.64.08.17.04.32.12.45.23.12.1.2.22.26.36.06.15.1.31.09.48 0 .16-.03.32-.1.47-.06.14-.15.27-.28.37-.13.1-.28.2-.45.24a2 2 0 01-.62.09l-.62-.01zm0-.4h.62c.13 0 .27-.02.4-.05.1-.04.2-.1.29-.16a.65.65 0 00.17-.25c.04-.1.06-.2.06-.31a.68.68 0 00-.23-.55c-.2-.15-.44-.22-.7-.2h-.61v1.52zm6.91 1.79h-.4a.18.18 0 01-.12-.03.23.23 0 01-.07-.09l-.35-.9h-1.75l-.36.9a.2.2 0 01-.07.08.18.18 0 01-.11.04h-.41l1.54-3.7h.54l1.56 3.7zm-2.55-1.37h1.46l-.62-1.51a2.6 2.6 0 01-.11-.35l-.06.2-.06.15-.6 1.5zm4.77-2.31c.03.01.06.03.08.06l2.25 2.8v-2.88h.46v3.7h-.26c-.03 0-.07 0-.1-.02a.28.28 0 01-.08-.07l-2.25-2.79v2.88h-.46v-3.7h.27c.03 0 .06 0 .1.02zM37 41.09v1.47h-.51v-1.47l-1.42-2.23h.46c.04 0 .08 0 .1.03.04.02.06.05.08.08l.89 1.44a2.26 2.26 0 01.15.33l.07-.16.09-.17.87-1.45a.38.38 0 01.07-.07.16.16 0 01.11-.04h.47L37 41.09zm-20.91-8.45l.68.07a19.1 19.1 0 008.44-6.96 17.78 17.78 0 003-10.24l-3.83-3.65c.78 3.86.41 7.84-1.05 11.52a21.27 21.27 0 01-7.24 9.26z"></path>
    <path d="M14.72 32.47l.1.02a20.6 20.6 0 007.65-9.54 19.54 19.54 0 00.7-12l-5.44-5.18a24.08 24.08 0 01-3.01 26.7zM33.2 19.79a18.8 18.8 0 01-6.41 10.23c-.95.78-1.97 1.48-3.05 2.08a18.19 18.19 0 007.08-3.81 17.09 17.09 0 004.59-6.4l-2.21-2.1z"></path>
    <path d="M32.33 19.2l-3.15-3a18.47 18.47 0 01-2.95 9.67 19.72 19.72 0 01-7.7 6.9h.02c.7 0 1.4-.03 2.11-.11a19.34 19.34 0 007.61-5.33 18.1 18.1 0 004.06-8.13zM15.18 3.58L11.42 0a17.75 17.75 0 00-8.28 6.23A16.46 16.46 0 000 15.83a16.51 16.51 0 003.8 10.43 17.96 17.96 0 009.73 6.02c3.44-4 5.46-8.93 5.75-14.1a23.44 23.44 0 00-4.1-14.6zM41 18.65a16.6 16.6 0 00-5.23-11.97 18.3 18.3 0 00-18.94-3.85l22.98 21.89c.79-1.94 1.2-4 1.19-6.07z"></path>
  </symbol>
  <symbol xmlns="http://www.w3.org/2000/svg" viewBox="0 0 80 43" id="logo-4">
    <path d="M12.4 12.83a4.04 4.04 0 00-4.1 4c0 2.2 1.84 3.99 4.1 3.99s4.1-1.8 4.1-4-1.84-3.99-4.1-3.99zm30.24-1.28c-.01-3.06-1.26-6-3.48-8.16a12.04 12.04 0 00-16.75 0 11.43 11.43 0 00-3.49 8.16v16.89s23.71-2.57 23.72-16.88zM0 33.98c0 2.13.88 4.17 2.42 5.68a8.38 8.38 0 0011.66 0 7.96 7.96 0 002.42-5.68V22.24S0 24.03 0 33.98zm8.25 2.1a2.2 2.2 0 01-1.2-.35 2.06 2.06 0 01-.33-3.24 2.18 2.18 0 012.36-.45 2.07 2.07 0 01.7 3.44 2.16 2.16 0 01-1.53.62v-.01zm16.84-1.3H23.4v1.74h-.88v-4.26h2.78v.71h-1.9v1.1h1.69v.71zm4.22-.3c0 .43-.07.8-.22 1.11a1.67 1.67 0 01-1.59 1 1.7 1.7 0 01-1.6-.98 2.51 2.51 0 01-.22-1.1v-.2c0-.43.08-.8.23-1.12a1.7 1.7 0 011.59-.99c.35 0 .67.09.94.26.28.17.5.41.65.73.15.32.22.69.22 1.1v.2zm-.89-.19c0-.44-.08-.78-.24-1.01a.78.78 0 00-.68-.35c-.3 0-.53.11-.69.34-.16.23-.24.57-.24 1.01v.2c0 .44.08.78.24 1.02.16.24.4.36.7.36.29 0 .51-.11.67-.34.16-.24.24-.57.24-1.02v-.2zm3.74 1.12c0-.17-.05-.3-.17-.39a2.25 2.25 0 00-.63-.28c-.3-.1-.55-.2-.73-.29-.48-.26-.72-.61-.72-1.06 0-.23.06-.43.19-.61s.32-.33.56-.43c.24-.1.52-.15.82-.15.3 0 .57.06.81.17a1.22 1.22 0 01.75 1.15h-.87c0-.2-.06-.35-.19-.46a.75.75 0 00-.52-.16.8.8 0 00-.5.14.43.43 0 00-.18.36c0 .13.07.25.21.34.14.1.35.19.62.27.5.15.86.33 1.1.56.22.22.34.5.34.83 0 .37-.14.66-.42.87-.28.2-.66.31-1.13.31a2.2 2.2 0 01-.9-.18 1.27 1.27 0 01-.83-1.22h.89c0 .47.28.7.84.7.2 0 .37-.03.49-.12.12-.08.17-.2.17-.35zm4.7-2.44h-1.31v3.55h-.88v-3.55h-1.29v-.71h3.47v.71zm3.06 1.7h-1.68v1.15h1.98v.7h-2.86v-4.26h2.85v.71h-1.97V34h1.68v.69zm2.4.3h-.7v1.55h-.89v-4.26h1.59c.5 0 .9.11 1.16.34.28.22.41.54.41.95 0 .29-.06.53-.19.73-.12.2-.31.34-.57.46l.93 1.74v.04h-.95l-.8-1.56zm-.7-.72h.7c.22 0 .4-.05.51-.17a.6.6 0 00.19-.46c0-.2-.06-.36-.18-.48-.11-.11-.29-.17-.52-.17h-.7v1.28zm5.32.77v1.5h-.88v-4.26h1.66c.32 0 .6.06.85.17.24.12.43.29.56.5.13.22.2.47.2.74 0 .42-.15.75-.43 1-.29.23-.68.35-1.2.35h-.76zm0-.71h.78c.24 0 .41-.06.53-.16.13-.11.19-.27.19-.47a.7.7 0 00-.19-.51.69.69 0 00-.5-.2h-.81v1.34zm5.56.37h-1.7v1.14h1.98v.7h-2.86v-4.26h2.86v.71H50.8V34h1.69v.69zm4.08-1.7h-1.3v3.54h-.89v-3.55H53.1v-.71h3.48v.71zm3.07 1.7h-1.69v1.14h1.98v.7h-2.86v-4.26h2.85v.71h-1.97V34h1.69v.69zm2.39.28h-.7v1.56h-.88v-4.26h1.58c.5 0 .9.11 1.17.34.27.22.4.54.4.95 0 .29-.06.53-.18.73-.13.2-.32.34-.57.46l.92 1.74v.04h-.94l-.8-1.56zm-.7-.7h.7c.22 0 .4-.06.52-.18a.6.6 0 00.18-.46c0-.2-.06-.36-.17-.48-.12-.11-.3-.17-.53-.17h-.7v1.28zm5.16 1.15c0-.17-.06-.3-.18-.39a2.25 2.25 0 00-.63-.28c-.3-.1-.54-.2-.72-.29-.49-.26-.73-.61-.73-1.06 0-.23.07-.43.2-.61s.31-.33.55-.43c.25-.1.52-.15.82-.15.3 0 .58.06.82.17a1.22 1.22 0 01.75 1.15h-.88c0-.2-.06-.35-.18-.46a.75.75 0 00-.52-.16.8.8 0 00-.5.14.43.43 0 00-.18.36c0 .13.07.25.2.34.15.1.36.19.63.27.5.15.86.33 1.09.56.23.22.34.5.34.83 0 .37-.14.66-.42.87-.28.2-.65.31-1.12.31a2.2 2.2 0 01-.9-.18 1.27 1.27 0 01-.83-1.22h.88c0 .47.28.7.85.7.2 0 .37-.03.48-.12.12-.08.18-.2.18-.35z"></path>
  </symbol>
  <symbol xmlns="http://www.w3.org/2000/svg" viewBox="0 0 59 47" id="logo-5">
    <path d="M4.49 39.28c.23.28.35.64.34 1a1.6 1.6 0 01-.53 1.28c-.45.34-1 .5-1.56.47H0v-6.4h2.68c.53-.04 1.06.11 1.49.42a1.46 1.46 0 01.52 1.2c.02.35-.1.7-.31.98-.21.25-.5.43-.82.5.37.07.7.26.93.55zm-3.22-.97h1.15c.26.02.52-.06.73-.21a.76.76 0 00.25-.63.79.79 0 00-.25-.62 1.1 1.1 0 00-.75-.22H1.27v1.68zm2 2.46a.8.8 0 00.26-.65.81.81 0 00-.27-.66c-.23-.17-.5-.25-.78-.23h-1.2v1.76h1.21c.28.02.55-.06.77-.22zm6.7 1.26l-1.49-2.5h-.56v2.5H6.63v-6.4h2.44c.6-.05 1.21.15 1.69.54a2.05 2.05 0 01.18 2.65c-.3.35-.71.58-1.16.65l1.59 2.56h-1.4zm-2.05-3.37h1.05c.73 0 1.1-.33 1.1-.97a.96.96 0 00-.28-.72c-.23-.2-.52-.29-.82-.26H7.9v1.95zM17 40.74h-2.57l-.45 1.3h-1.35l2.35-6.34h1.46l2.34 6.33h-1.35L17 40.74zm-.35-.97l-.94-2.7-.93 2.7h1.87zm9.13 2.26H24.5l-2.86-4.35v4.35h-1.27v-6.4h1.27L24.5 40v-4.38h1.28v6.4zm7.27-1.53c-.26.48-.67.88-1.15 1.13-.56.28-1.17.42-1.8.4h-2.26v-6.4h2.26c.62-.02 1.24.12 1.8.4.48.24.89.63 1.15 1.1a3.74 3.74 0 010 3.37zm-1.46-.16a2.35 2.35 0 000-3.05 2.21 2.21 0 00-1.6-.55h-.88v4.15H30c.58.04 1.15-.16 1.6-.55zM17.79 0s16.45 6.24 16.1 15.26v15.26s-16.44-6.24-16.1-15.26V0zm30.76 26.95c3.1-2.15 6.7-3.48 10.45-3.87V18.3a21.47 21.47 0 00-10.45 8.65z"></path>
    <path d="M46.68 28.39A22.38 22.38 0 0159 17.3V3.54s-23.43 8.88-22.93 21.73V47s1.04-.4 2.68-1.14c0-.7 0-1.4.08-2.1a22.6 22.6 0 017.85-15.37z"></path>
    <path d="M44.45 36.46c.13-1.5.4-3 .82-4.45a21.04 21.04 0 00-4.96 13.13 68.03 68.03 0 004.5-2.39 22.57 22.57 0 01-.36-6.29zm.93.08c-.15 1.9-.05 3.82.3 5.7 6.4-3.85 13.59-9.79 13.31-16.97v-.63a20.97 20.97 0 00-12.18 5.72 21.5 21.5 0 00-1.43 6.18z"></path>
  </symbol>
  <symbol xmlns="http://www.w3.org/2000/svg" viewBox="0 0 89 46" id="logo-6">
    <path d="M44.74 21.35a3.26 3.26 0 01-.57-2.05v-3c0-.91.19-1.6.57-2.08.38-.48 1.03-.71 1.95-.71.86 0 1.48.2 1.84.6.4.52.59 1.15.54 1.79v.7h-1.54v-.7c0-.24-.01-.47-.05-.7a.69.69 0 00-.22-.42.84.84 0 00-.56-.16.89.89 0 00-.6.17.8.8 0 00-.25.46c-.04.24-.06.49-.06.73v3.62a2 2 0 00.2 1.02c.08.1.18.2.3.25.13.05.27.07.4.05.2.02.4-.04.56-.16.12-.12.2-.27.23-.44.03-.24.05-.48.05-.72v-.74h1.54v.67c.05.67-.14 1.32-.53 1.88-.36.44-.96.66-1.85.66-.9 0-1.57-.24-1.95-.73zm6.45.03c-.4-.46-.6-1.14-.6-2.03V16.2c0-.89.2-1.56.6-2.01.39-.46 1.04-.68 1.96-.68.9 0 1.56.23 1.95.68.39.45.59 1.12.59 2.01v3.14c0 .88-.2 1.56-.6 2.03-.4.47-1.04.7-1.94.7-.9 0-1.57-.24-1.96-.7zm2.68-.75c.14-.29.2-.6.18-.93v-3.84c.02-.31-.04-.62-.18-.9a.74.74 0 00-.31-.26.78.78 0 00-.41-.05.8.8 0 00-.41.05.75.75 0 00-.32.25c-.14.29-.2.6-.19.91v3.86c-.02.32.05.64.19.93a.96.96 0 00.72.31 1 1 0 00.73-.31v-.02zm3.68-7.02h1.67l1.25 5.79 1.28-5.79h1.62l.17 8.36h-1.2l-.13-5.81-1.24 5.8h-.96l-1.28-5.82-.12 5.83H57.4l.15-8.36zm7.85 0H68c1.5 0 2.25.8 2.25 2.37 0 1.52-.8 2.27-2.37 2.27H67v3.72h-1.6V13.6zm2.22 3.57a1.16 1.16 0 00.88-.26c.19-.28.27-.62.24-.95 0-.25-.02-.5-.08-.75a.67.67 0 00-.32-.4c-.22-.1-.47-.15-.72-.14H67v2.5h.62zm4.94-3.57h1.72l1.76 8.36h-1.5l-.34-1.93h-1.53l-.36 1.93h-1.52l1.77-8.36zm1.47 5.46l-.6-3.5-.6 3.5h1.2zm3.44-5.46h1.12l2.15 4.77V13.6h1.33v8.36H81l-2.16-4.98v4.98h-1.37V13.6zm7.71 5.17l-1.78-5.16h1.5l1.1 3.32 1-3.32h1.47l-1.76 5.16v3.19h-1.54v-3.19zm-37.97 6.84v.44h-1.3v3.4h-.55v-3.4h-1.31v-.44h3.16zm4.1 3.83h-.42a.18.18 0 01-.12-.04.2.2 0 01-.07-.08l-.38-.91h-1.81l-.38.9a.26.26 0 01-.06.11.18.18 0 01-.12.04h-.42l1.6-3.84h.56l1.62 3.82zm-2.65-1.42h1.51l-.64-1.56a2.96 2.96 0 01-.12-.36l-.06.2-.06.16-.63 1.56zm5.42 1.04h.3a1.65 1.65 0 00.48-.11l.22-.1V28h-.64a.12.12 0 01-.09-.03.08.08 0 01-.03-.07v-.3h1.24v1.48a2.35 2.35 0 01-1.07.39c-.16.02-.31.02-.47.02-.28 0-.55-.04-.8-.14-.25-.09-.47-.23-.65-.4a1.85 1.85 0 01-.56-1.4c0-.27.04-.55.14-.8a1.76 1.76 0 011.06-1c.27-.1.56-.15.86-.15a2.94 2.94 0 01.82.13 1.76 1.76 0 01.6.35l-.15.24a.14.14 0 01-.05.05.15.15 0 01-.08.02.2.2 0 01-.1-.03 1.9 1.9 0 01-.15-.09 1.87 1.87 0 00-.92-.22c-.21 0-.42.03-.62.1-.18.07-.34.18-.47.3-.13.15-.23.3-.3.49-.14.41-.14.86 0 1.27a1.37 1.37 0 001.43.86zm5.11-.06h1.75v.44h-2.29v-3.83h.55l-.01 3.4zm3.57.44h-.55v-3.83h.55v3.83zm2.04-3.81c.03.01.05.04.08.07l2.34 2.89v-3h.48v3.85h-.28c-.04 0-.08 0-.12-.02a.31.31 0 01-.08-.07l-2.34-2.89v2.98h-.46v-3.83h.28c.03 0 .07 0 .1.02zm6.93-.02v.42H69.8v1.27h1.57v.4H69.8v1.31h1.94v.42h-2.5v-3.82h2.5zM14.3 1.95L38.64 8.5v22.92L14.3 24.88V1.95zM12.74 0v26l27.46 7.37V7.38L12.74 0z"></path>
    <path d="M27.46 45.44L0 38.05V12.06l27.46 7.39v25.99z"></path>
    <path d="M13.2 1.66l24.02 6.46L27 17.79 2.98 11.33 13.2 1.66zM12.74 0L0 12.06l27.46 7.39L40.2 7.38 12.74 0zM29 43.98l11.2-10.6L29 30.36v13.62z"></path>
  </symbol>
  <symbol xmlns="http://www.w3.org/2000/svg" viewBox="0 0 20 32" id="smartphone">
    <path d="M17 0H3a3 3 0 00-3 3v26a3 3 0 003 3h14a3 3 0 003-3V3a3 3 0 00-3-3zM3 2h14a1 1 0 011 1v21H2V3a1 1 0 011-1zm14 28H3a1 1 0 01-1-1v-3h16v3a1 1 0 01-1 1z"></path>
    <path d="M4.7 27.48c.4.36.4.95 0 1.32s-1.02.36-1.4 0c-.4-.37-.4-.96 0-1.32s1.02-.37 1.4 0z"></path>
  </symbol>
  <symbol xmlns="http://www.w3.org/2000/svg" viewBox="0 0 32 32" id="twitter">
    <path d="M32 6.08c-1.19.52-2.46.87-3.78 1.03a6.52 6.52 0 002.89-3.62 13.11 13.11 0 01-4.16 1.59 6.57 6.57 0 00-11.2 5.98A18.57 18.57 0 012.23 4.2a6.57 6.57 0 002.02 8.77 6.48 6.48 0 01-2.97-.81v.07a6.59 6.59 0 005.26 6.44 6.55 6.55 0 01-2.97.1 6.62 6.62 0 006.13 4.58 13.18 13.18 0 01-9.7 2.7A18.47 18.47 0 0010.06 29c12.08 0 18.68-10 18.68-18.67 0-.29-.01-.57-.03-.85 1.3-.92 2.4-2.07 3.29-3.4z"></path>
  </symbol>
  <symbol xmlns="http://www.w3.org/2000/svg" viewBox="0 0 11 11" id="btn-close">
   <path d="M11 1.1L9.9 0 5.5 4.4 1.1 0 0 1.1l4.4 4.4L0 9.9 1.1 11l4.4-4.4L9.9 11 11 9.9 6.6 5.5 11 1.1z"/>
  </symbol>
  <symbol xmlns="http://www.w3.org/2000/svg" viewBox="0 0 24 24" id="icon-send">
   <path d="M24 0L0 13.5l7.67 2.84L19.5 5.25l-9 12.14V24l4.3-5.02L20.25 21 24 0z"/> 
  </symbol>
  <symbol xmlns="http://www.w3.org/2000/svg" viewBox="0 0 18 18" id="icon-person">
   <path  d="M9 9a3 3 0 100-6 3 3 0 000 6zm0 1.5c-2 0-6 1-6 3v.75c0 .41.34.75.75.75h10.5c.41 0 .75-.34.75-.75v-.75c0-2-4-3-6-3z"/> 
  </symbol>
  <symbol xmlns="http://www.w3.org/2000/svg" viewBox="0 0 18 18" id="icon-mail">
<path  d="M15 3H3c-.83 0-1.5.67-1.5 1.5v9c0 .82.67 1.5 1.5 1.5h12c.82 0 1.5-.68 1.5-1.5v-9c0-.83-.68-1.5-1.5-1.5zm-.3 3.19L9.4 9.5a.76.76 0 01-.8 0L3.3 6.2a.64.64 0 11.68-1.08L9 8.25l5.03-3.14a.64.64 0 11.67 1.08z"/> 
  </symbol>
    <symbol xmlns="http://www.w3.org/2000/svg" viewBox="0 0 18 18" id="icon-phone">
<path  d="M14 11.12l-1.84-.2c-.44-.06-.88.1-1.19.4l-1.33 1.34a10.89 10.89 0 01-4.77-4.77l1.34-1.34c.31-.31.46-.75.41-1.19l-.2-1.82a1.45 1.45 0 00-1.45-1.28H3.72c-.82 0-1.5.68-1.45 1.5a12.3 12.3 0 0011.5 11.5c.82.05 1.5-.63 1.5-1.45v-1.25c0-.74-.54-1.35-1.27-1.44z"/> 
  </symbol>
 <symbol xmlns="http://www.w3.org/2000/svg" viewBox="0 0 16 15" id="icon-checked">
<rect width="16" height="15" fill="#2196F3" rx="2"/>
  <path fill="#fff" stroke="#fff" stroke-width=".2" d="M3.96 7.75l-.07-.06-.07.06-.89.84-.08.07.08.08 3.5 3.33.07.07.06-.07 7.5-7.16.08-.07-.07-.07-.88-.84-.07-.07-.07.07-6.55 6.24-2.54-2.42z"/>
  </symbol>
 <symbol xmlns="http://www.w3.org/2000/svg" viewBox="0 0 16 15" id="icon-unchecked">
<path  d="M14.22 1.67v11.66H1.78V1.67h12.44zm0-1.67H1.78C.8 0 0 .75 0 1.67v11.66C0 14.25.8 15 1.78 15h12.44c.98 0 1.78-.75 1.78-1.67V1.67C16 .75 15.2 0 14.22 0z"/>
  </symbol>
   <symbol xmlns="http://www.w3.org/2000/svg" viewBox="0 0 24 16" id="icon-burger">
<path fill-rule="evenodd" d="M0 2.67V0h24v2.67H0zm0 6.66h24V6.67H0v2.66zM0 16h24v-2.67H0V16z" clip-rule="evenodd"/>
  </symbol>
</svg>